<svg xmlns="http://www.w3.org/2000/svg" version="1.1" xmlns:xlink="http://www.w3.org/1999/xlink" xmlns:svgjs="http://svgjs.dev/svgjs" width="2000" height="2248" viewBox="0 0 2000 2248"><g transform="matrix(1,0,0,1,-0.8744686630782326,0.0005134783689300093)"><svg viewBox="0 0 249 280" data-background-color="#f1ede1" preserveAspectRatio="xMidYMid meet" height="2248" width="2000" xmlns="http://www.w3.org/2000/svg" xmlns:xlink="http://www.w3.org/1999/xlink"><g id="tight-bounds" transform="matrix(1,0,0,1,0.10887134855323666,0.0000639563804725185)"><svg viewBox="0 0 248.7822573028935 280" height="280" width="248.7822573028935"><g><svg viewBox="0 0 278.2696 313.1874790618109" height="280" width="248.7822573028935"><g><svg viewBox="0 0 278.2696 313.1874790618109" height="313.1874790618109" width="278.2696"><g id="textblocktransform"><svg viewBox="0 0 278.2696 313.1874790618109" height="313.1874790618109" width="278.2696" id="textblock"><g><svg viewBox="0 0 278.2696 278.2696" height="278.2696" width="278.2696"><g transform="matrix(1,0,0,1,89.94321971048298,93.62024189360103)"><svg viewBox="0 0 98.38316057903407 91.02911621279796" height="91.02911621279796" width="98.38316057903407"><g id="icon-0"><svg xmlns="http://www.w3.org/2000/svg" xmlns:xlink="http://www.w3.org/1999/xlink" version="1.1" x="0" y="0" viewBox="24.57 31.56665985950386 50.85900032954253 47.05734014049614" enable-background="new 0 0 100 100" xml:space="preserve" height="91.02911621279796" width="98.38316057903407" class="icon-xg-0" data-fill-palette-color="accent" id="xg-0"><path d="M70.214 52.501c-0.354-1.415-1.014-2.692-1.895-3.777 0.104-0.056 0.213-0.103 0.314-0.161 1.778-1.024 3.124-2.577 3.892-4.49 0.129-0.319 0.083-0.682-0.119-0.96-0.202-0.277-0.518-0.425-0.878-0.41-0.678 0.051-1.362-0.015-2.004-0.188-1.576-0.422-2.894-1.433-3.71-2.846-0.815-1.412-1.032-3.059-0.61-4.635 0.172-0.644 0.454-1.259 0.839-1.828 0.193-0.285 0.226-0.65 0.086-0.965-0.14-0.315-0.433-0.536-0.773-0.585-2.012-0.284-4.082 0.114-5.832 1.124-1.875 1.082-3.273 2.792-3.997 4.804-2.278-1.426-4.945-2.244-7.741-2.244-5.016 0-9.71 2.605-12.388 6.838C29.39 42.398 24.57 47.354 24.57 53.416c0 6.201 5.045 11.246 11.246 11.246h5.382v9.312c0 0.553 0.447 1 1 1s1-0.447 1-1v-9.312h13.605v9.312c0 0.553 0.447 1 1 1s1-0.447 1-1v-9.312h10.511c3.372 0 6.115-2.743 6.115-6.115C75.43 55.499 73.155 52.939 70.214 52.501zM60.523 34.512c0.937-0.541 1.987-0.859 3.063-0.932-0.125 0.306-0.229 0.618-0.314 0.937-0.561 2.092-0.272 4.276 0.811 6.151 1.083 1.876 2.832 3.217 4.922 3.777 0.318 0.086 0.644 0.151 0.974 0.197-0.598 0.896-1.392 1.639-2.344 2.188-0.265 0.152-0.538 0.287-0.819 0.405-0.371-0.295-0.764-0.563-1.176-0.803-0.001-0.001-0.002-0.001-0.003-0.002-0.403-0.234-0.824-0.441-1.261-0.616-0.009-0.004-0.018-0.007-0.027-0.011-0.427-0.17-0.867-0.312-1.32-0.422-0.011-0.003-0.021-0.004-0.033-0.007-0.449-0.106-0.908-0.187-1.378-0.229-0.124-0.354-0.265-0.699-0.414-1.04-0.016-0.035-0.033-0.069-0.049-0.104-0.141-0.314-0.293-0.623-0.455-0.926-0.009-0.016-0.018-0.03-0.025-0.046-0.868-1.606-2.027-3.042-3.448-4.238C57.719 36.989 58.897 35.45 60.523 34.512zM69.314 62.662H35.816c-5.099 0-9.246-4.147-9.246-9.246s4.147-9.246 9.236-9.246c0 0 0 0 0.001 0 0.026 0.002 0.126 0.007 0.153 0.007 0.357 0 0.687-0.19 0.865-0.499 2.261-3.91 6.46-6.339 10.959-6.339 5.199 0 9.896 3.256 11.78 8.036 0.005 0.014 0.012 0.027 0.018 0.042 0.124 0.319 0.236 0.645 0.335 0.977 0.125 0.418 0.507 0.708 0.943 0.715 1.878 0.029 3.683 0.743 5.082 2.01 0.003 0.002 0.006 0.003 0.009 0.005 1.26 1.143 2.152 2.694 2.448 4.476 0.079 0.478 0.488 0.829 0.973 0.836 2.236 0.031 4.057 1.876 4.057 4.112C73.43 60.816 71.584 62.662 69.314 62.662zM50.002 66.312c-0.553 0-1 0.447-1 1v10.312c0 0.553 0.447 1 1 1s1-0.447 1-1V67.312C51.002 66.76 50.555 66.312 50.002 66.312z" fill="#000000" data-fill-palette-color="accent"></path></svg></g></svg></g><g id="text-0"><path d="M29.677 99.453l-1.491 3.747-21.225-1.261 0.155-3.574 18.016 1.296-12.575-10.347 1.461-3.672 16.201 1.235-14.001-11.388 2.297-2.59 16.275 13.703-1.487 3.738-16.435-1.283z" fill="#000000" data-fill-palette-color="primary"></path><path d="M57.043 56.297v0c-2.109 2.186-4.481 3.244-7.118 3.176-2.627-0.069-5.2-1.318-7.72-3.75v0c-1.523-1.469-2.606-3.069-3.25-4.8-0.649-1.736-0.82-3.456-0.512-5.16 0.307-1.704 1.12-3.239 2.437-4.605v0c1.412-1.464 2.902-2.374 4.468-2.73 1.572-0.352 3.128-0.254 4.668 0.293 1.55 0.547 2.968 1.441 4.255 2.682v0c0.683 0.659 1.32 1.33 1.911 2.015v0l-10.285 10.661c1.59 1.202 3.181 1.779 4.773 1.731 1.592-0.048 3.039-0.747 4.343-2.098v0c0.843-0.874 1.513-1.755 2.009-2.642 0.491-0.882 0.902-1.785 1.232-2.708v0l2.845 1.563c-0.368 1.001-0.873 2.04-1.515 3.119-0.642 1.078-1.489 2.163-2.541 3.253zM43.725 52.04v0l8.053-8.348c-1.483-1.431-2.983-2.162-4.499-2.192-1.521-0.026-2.912 0.615-4.172 1.921v0c-1.09 1.13-1.597 2.447-1.522 3.951 0.071 1.509 0.784 3.065 2.14 4.668z" fill="#000000" data-fill-palette-color="primary"></path><path d="M90.368 33.284v0c-1.595 0.746-3.234 1.02-4.917 0.82-1.686-0.206-3.263-0.869-4.729-1.991-1.47-1.128-2.676-2.7-3.62-4.715v0c-0.897-1.916-1.314-3.816-1.253-5.698 0.058-1.888 0.561-3.6 1.508-5.136 0.947-1.536 2.304-2.717 4.072-3.544v0c1.107-0.518 2.198-0.795 3.273-0.831 1.073-0.042 2.073 0.066 3 0.325v0l-0.724-1.548 3.023-1.415 6.794 14.521c0.437 0.933 0.95 1.435 1.541 1.505 0.584 0.073 1.148-0.017 1.692-0.272v0l0.502 2.908c-2.355 1.102-4.228 0.811-5.62-0.875v0c-0.195 1.048-0.626 2.124-1.293 3.228-0.664 1.109-1.747 2.015-3.249 2.718zM89.73 29.988v0c0.933-0.437 1.71-1.079 2.331-1.927 0.623-0.842 1.054-1.74 1.293-2.696v0l-4.812-10.283c-0.878-0.154-1.783-0.187-2.713-0.098-0.93 0.089-1.838 0.34-2.722 0.754v0c-1.181 0.552-2.077 1.341-2.69 2.366-0.616 1.019-0.933 2.185-0.952 3.497-0.013 1.309 0.314 2.675 0.979 4.097v0c0.645 1.378 1.474 2.482 2.488 3.312 1.02 0.826 2.124 1.327 3.313 1.501 1.192 0.181 2.354 0.006 3.485-0.523z" fill="#000000" data-fill-palette-color="primary"></path><path d="M128.6 22.244l-3.648 0.349-2.016-21.064 3.526-0.337 0.438 4.575c0.268-0.924 0.661-1.798 1.178-2.622 0.517-0.831 1.201-1.524 2.054-2.078 0.844-0.561 1.861-0.898 3.05-1.012v0c0.401-0.038 0.807-0.057 1.218-0.055 0.412 0.002 0.754 0.031 1.027 0.087v0l-0.73 3.875c-0.53-0.169-1.149-0.219-1.855-0.152v0c-0.999 0.096-1.923 0.469-2.773 1.119-0.849 0.657-1.509 1.608-1.979 2.853-0.464 1.244-0.608 2.783-0.432 4.618v0z" fill="#000000" data-fill-palette-color="primary"></path><path d="M198.594 38.881v0c-1.745-1.005-3.076-2.311-3.992-3.919-0.92-1.617-1.357-3.373-1.313-5.269 0.048-1.902 0.614-3.793 1.697-5.674v0c1.134-1.969 2.515-3.443 4.141-4.419 1.623-0.971 3.354-1.447 5.193-1.428 1.83 0.022 3.606 0.529 5.326 1.521v0c1.715 0.988 3.035 2.264 3.962 3.829 0.928 1.574 1.389 3.304 1.381 5.191-0.011 1.892-0.576 3.811-1.697 5.756v0c-1.124 1.952-2.503 3.422-4.135 4.411-1.63 0.983-3.365 1.48-5.207 1.491-1.832 0.008-3.617-0.489-5.356-1.49zM200.219 36.06v0c1.857 1.07 3.666 1.273 5.427 0.609 1.755-0.667 3.208-2 4.358-3.999v0c0.702-1.218 1.09-2.487 1.165-3.807 0.075-1.319-0.153-2.545-0.682-3.677-0.52-1.134-1.342-2.025-2.465-2.672v0c-1.857-1.07-3.655-1.29-5.396-0.663-1.74 0.628-3.191 1.95-4.352 3.968v0c-0.705 1.224-1.102 2.508-1.191 3.851-0.083 1.347 0.138 2.584 0.662 3.712 0.52 1.134 1.345 2.027 2.474 2.678z" fill="#000000" data-fill-palette-color="primary"></path><path d="M229.626 65.724v0c-0.769-0.949-1.294-2.008-1.575-3.178-0.286-1.165-0.194-2.373 0.277-3.625 0.466-1.257 1.449-2.493 2.949-3.709v0l10.679-8.66 2.308 2.847-10.305 8.356c-1.283 1.04-2.045 2.111-2.286 3.211-0.242 1.11 0.062 2.19 0.914 3.24v0c0.701 0.864 1.555 1.56 2.562 2.087 1.008 0.527 2.063 0.87 3.168 1.03v0l12.356-10.021 2.309 2.847-12.166 9.865c-0.906 0.735-1.346 1.412-1.318 2.032 0.032 0.624 0.235 1.167 0.608 1.628v0l-2.694 1.196c-1.59-1.961-1.796-3.807-0.615-5.537v0c-1.356-0.122-2.663-0.477-3.921-1.065-1.259-0.578-2.343-1.426-3.25-2.544z" fill="#000000" data-fill-palette-color="primary"></path><path d="M250.446 104.36v0c-0.654-1.933-0.533-3.674 0.362-5.223 0.897-1.543 2.529-2.714 4.896-3.515v0l9.407-3.181-1.175-3.472 3.006-1.017 1.198 3.54 6.572-1.402 0.899 2.657-6.323 2.139 1.879 5.556-3.006 1.017-1.879-5.556-9.679 3.273c-1.493 0.505-2.427 1.174-2.801 2.007-0.383 0.828-0.426 1.679-0.131 2.551v0c0.219 0.646 0.529 1.222 0.93 1.728 0.404 0.512 0.83 0.962 1.279 1.351v0l-2.459 1.901c-0.477-0.408-1.011-0.998-1.604-1.77-0.593-0.772-1.05-1.633-1.371-2.584z" fill="#000000" data-fill-palette-color="primary"></path><path d="M9.465 187.124l-1.394-3.566 15.548-12.892 2.219 2.584-13.35 10.78 15.438-0.967 1.364 3.489-12.043 9.654 17.107-1.169 0.077 3.289-20.181 1.04-1.393-3.566 12.251-9.767z" fill="#000000" data-fill-palette-color="primary"></path><path d="M40.171 237.745v0c-1.99-2.091-2.902-4.385-2.734-6.882 0.173-2.491 1.463-4.883 3.87-7.174v0c1.458-1.388 3.022-2.353 4.692-2.897 1.674-0.538 3.313-0.628 4.916-0.269 1.603 0.358 3.029 1.192 4.275 2.502v0c1.332 1.399 2.136 2.848 2.413 4.347 0.272 1.503 0.115 2.976-0.472 4.419-0.581 1.448-1.487 2.758-2.718 3.93v0c-0.653 0.621-1.316 1.196-1.99 1.725v0l-9.705-10.196c-1.2 1.462-1.808 2.951-1.826 4.466-0.018 1.515 0.584 2.916 1.808 4.201v0c0.8 0.84 1.609 1.512 2.426 2.015 0.818 0.503 1.659 0.932 2.524 1.286v0l-1.6 2.64c-0.937-0.39-1.904-0.911-2.901-1.563-0.993-0.657-1.985-1.507-2.978-2.55zM44.744 225.28v0l7.594 7.979c1.419-1.35 2.175-2.744 2.268-4.18 0.089-1.441-0.462-2.787-1.652-4.038v0c-1.03-1.083-2.263-1.62-3.697-1.612-1.429 0.013-2.934 0.63-4.513 1.851z" fill="#000000" data-fill-palette-color="primary"></path><path d="M80.054 265.88v0c-1.516-0.721-2.709-1.757-3.578-3.108-0.866-1.357-1.332-2.912-1.397-4.666-0.062-1.76 0.361-3.596 1.27-5.506v0c0.862-1.812 2.004-3.268 3.426-4.367 1.419-1.093 2.978-1.758 4.677-1.993 1.69-0.232 3.373 0.051 5.049 0.849v0c1.048 0.498 1.912 1.128 2.592 1.89 0.678 0.768 1.203 1.57 1.577 2.405v0l0.699-1.47 2.866 1.363-6.542 13.757c-0.422 0.888-0.484 1.565-0.185 2.032 0.305 0.47 0.714 0.827 1.226 1.07v0l-1.822 2.138c-2.237-1.064-3.158-2.617-2.761-4.658v0c-0.885 0.494-1.936 0.829-3.154 1.006-1.211 0.18-2.526-0.068-3.943-0.742zM82.075 263.418v0c0.888 0.422 1.828 0.605 2.822 0.548 1-0.053 1.922-0.276 2.767-0.668v0l4.634-9.744c-0.418-0.743-0.942-1.427-1.574-2.052-0.629-0.632-1.363-1.147-2.201-1.546v0c-1.116-0.531-2.235-0.712-3.358-0.543-1.12 0.163-2.166 0.636-3.137 1.422-0.974 0.776-1.782 1.839-2.423 3.189v0c-0.619 1.3-0.923 2.576-0.914 3.828 0.006 1.242 0.304 2.355 0.895 3.339 0.593 0.977 1.423 1.72 2.489 2.227z" fill="#000000" data-fill-palette-color="primary"></path><path d="M125.889 278.27l-3.464-0.348 2.008-20.005 3.351 0.336-0.436 4.349c0.418-0.815 0.946-1.562 1.582-2.238 0.637-0.67 1.402-1.187 2.296-1.55 0.887-0.364 1.898-0.489 3.032-0.374v0c0.38 0.038 0.762 0.094 1.145 0.166 0.383 0.08 0.696 0.169 0.941 0.269v0l-1.398 3.471c-0.462-0.252-1.029-0.412-1.701-0.479v0c-0.944-0.095-1.874 0.086-2.791 0.543-0.909 0.451-1.699 1.212-2.37 2.283-0.663 1.072-1.082 2.481-1.257 4.226v0z" fill="#000000" data-fill-palette-color="primary"></path><path d="M209.949 259.682v0c-1.648 0.954-3.353 1.428-5.115 1.422-1.762-0.006-3.413-0.481-4.953-1.427-1.543-0.936-2.831-2.296-3.864-4.08v0c-1.084-1.873-1.639-3.712-1.667-5.517-0.03-1.796 0.4-3.445 1.29-4.945 0.893-1.495 2.152-2.712 3.777-3.653v0c1.63-0.943 3.31-1.427 5.039-1.449 1.733-0.017 3.373 0.426 4.92 1.328 1.557 0.905 2.87 2.282 3.94 4.13v0c1.073 1.855 1.626 3.688 1.657 5.5 0.037 1.808-0.377 3.471-1.241 4.988-0.868 1.512-2.129 2.746-3.783 3.703zM208.4 257.006v0c1.766-1.022 2.794-2.413 3.085-4.174 0.29-1.761-0.114-3.589-1.211-5.485v0c-0.67-1.158-1.532-2.082-2.587-2.773-1.051-0.685-2.167-1.08-3.347-1.186-1.175-0.109-2.3 0.148-3.375 0.77v0c-1.76 1.019-2.796 2.391-3.106 4.116-0.307 1.731 0.093 3.554 1.201 5.468v0c0.673 1.164 1.542 2.1 2.607 2.808 1.065 0.709 2.184 1.117 3.359 1.226 1.181 0.105 2.306-0.151 3.374-0.77z" fill="#000000" data-fill-palette-color="primary"></path><path d="M247.242 227.375v0c-0.729 0.903-1.605 1.603-2.629 2.101-1.03 0.493-2.173 0.645-3.432 0.454-1.257-0.181-2.597-0.846-4.02-1.994v0l-10.175-8.209 2.186-2.709 9.808 7.913c1.227 0.99 2.374 1.486 3.442 1.489 1.078 0.001 2.019-0.497 2.825-1.496v0c0.664-0.823 1.145-1.756 1.441-2.797 0.292-1.036 0.401-2.084 0.327-3.143v0l-11.768-9.495 2.179-2.701 11.585 9.347c0.866 0.699 1.581 0.969 2.147 0.811 0.571-0.153 1.034-0.45 1.389-0.891v0l1.655 2.269c-1.509 1.87-3.184 2.425-5.027 1.666v0c0.157 1.284 0.088 2.57-0.206 3.859-0.294 1.288-0.87 2.464-1.727 3.526z" fill="#000000" data-fill-palette-color="primary"></path><path d="M271.763 181.733v0c-0.615 1.838-1.705 3.086-3.27 3.742-1.565 0.657-3.471 0.61-5.717-0.141v0l-8.952-2.993-1.103 3.301-2.855-0.954 1.127-3.369-5.786-2.712 0.847-2.534 6.02 2.012 1.766-5.281 2.854 0.954-1.766 5.282 9.204 3.077c1.417 0.474 2.507 0.507 3.27 0.101 0.764-0.414 1.285-1.035 1.562-1.864v0c0.206-0.615 0.303-1.23 0.293-1.845-0.01-0.615-0.074-1.198-0.193-1.748v0l2.95-0.039c0.127 0.589 0.194 1.346 0.201 2.269-0.001 0.928-0.152 1.842-0.452 2.742z" fill="#000000" data-fill-palette-color="primary"></path><path d="M0.601 139.616c0-5.71 4.629-10.34 10.34-10.34 5.71 0 10.34 4.629 10.339 10.34 0 5.71-4.629 10.34-10.339 10.339-5.71 0-10.34-4.629-10.34-10.339z" fill="#000000" data-fill-palette-color="primary"></path><path d="M256.989 139.616c0-5.71 4.629-10.34 10.34-10.34 5.71 0 10.34 4.629 10.34 10.34 0 5.71-4.629 10.34-10.34 10.339-5.71 0-10.34-4.629-10.34-10.339z" fill="#000000" data-fill-palette-color="primary"></path></g><g id="text-1"></g></svg></g><g transform="matrix(1,0,0,1,53.1494936,294.60952000000003)"><svg viewBox="0 0 171.97061280000003 18.577959061810898" height="18.577959061810898" width="171.97061280000003"><g transform="matrix(1,0,0,1,0,0)"><svg width="171.97061280000003" viewBox="2.15 -39 448.91 48.5" height="18.577959061810898" data-palette-color="#2f5651"><path d="M23.6-24.55L23.6-11.35 21.05-11.35 20.2-16.45 11.85-16.45 11.85-3.35 17.7-2.4 17.7 0 2.15 0 2.15-2.15 6.85-3.35 6.85-32.8 2.15-33.85 2.15-36 30.3-36 30.3-25.3 27.6-25.3 26-33.1 11.85-33.1 11.85-19.45 20.2-19.45 21.05-24.55 23.6-24.55ZM32.75-5.85L32.75-5.85Q32.75-9.75 36.4-12 40.05-14.25 48.5-15.5L48.5-15.5Q48.3-18.45 47.95-20.1 47.6-21.75 47.05-22.75L47.05-22.75Q46.35-24.05 45.1-24.68 43.85-25.3 42.4-25.3L42.4-25.3Q41-25.3 39.87-24.8 38.75-24.3 38.35-23.45L38.35-23.45Q39.05-22.95 39.37-22.15 39.7-21.35 39.7-20.65L39.7-20.65Q39.7-19.4 38.87-18.68 38.05-17.95 36.85-17.95L36.85-17.95Q35.65-17.95 34.87-18.75 34.1-19.55 34.1-21L34.1-21Q34.1-23.1 35.55-24.55 37-26 39.22-26.75 41.45-27.5 43.7-27.5L43.7-27.5Q45.75-27.5 47.47-26.88 49.2-26.25 50.4-25.05L50.4-25.05Q53.5-21.95 53.5-14.05L53.5-14.05 53.5-6.8Q53.5-4.35 53.82-3.4 54.15-2.45 55.25-2.45L55.25-2.45 57.5-2.45 57.5-0.95Q53.9 0.5 51.9 0.5L51.9 0.5Q50.35 0.5 49.82-0.63 49.3-1.75 49.3-4.95L49.3-4.95 49.1-4.95Q47.55-2.4 45-0.95 42.45 0.5 39.5 0.5L39.5 0.5Q36.35 0.5 34.55-1.2 32.75-2.9 32.75-5.85ZM41.6-2.4L41.6-2.4Q43-2.4 44.52-3.13 46.05-3.85 47.1-5.15L47.1-5.15Q47.9-6.15 48.27-7.53 48.65-8.9 48.65-10.75L48.65-10.75Q48.65-11.6 48.6-12.43 48.55-13.25 48.45-14L48.45-14Q44.4-13.2 42.1-12.28 39.8-11.35 38.85-10.08 37.9-8.8 37.9-6.9L37.9-6.9Q37.9-4.75 38.87-3.58 39.85-2.4 41.6-2.4ZM69.9-1.8L69.9-1.8Q72.7-1.8 74.47-2.95 76.25-4.1 76.25-6.15L76.25-6.15Q76.25-7.8 75.15-8.8 74.05-9.8 72.42-10.43 70.8-11.05 69.15-11.5L69.15-11.5Q67.1-12.15 65.2-13.03 63.3-13.9 62.1-15.45 60.9-17 60.9-19.55L60.9-19.55Q60.9-23.15 63.52-25.33 66.15-27.5 70.85-27.5L70.85-27.5Q74.85-27.5 77.17-25.83 79.5-24.15 79.5-21.25L79.5-21.25Q79.5-19.7 78.8-18.78 78.1-17.85 76.8-17.85L76.8-17.85Q75.65-17.85 74.9-18.55 74.15-19.25 74.15-20.35L74.15-20.35Q74.15-21.3 74.65-22.08 75.15-22.85 75.95-23.2L75.95-23.2Q75.2-24.25 74.02-24.73 72.85-25.2 71-25.2L71-25.2Q68-25.2 66.5-24.13 65-23.05 65-20.95L65-20.95Q65-19.45 65.72-18.57 66.45-17.7 67.85-17.1 69.25-16.5 71.3-15.85L71.3-15.85Q73-15.35 74.65-14.73 76.3-14.1 77.65-13.2 79-12.3 79.8-10.95 80.6-9.6 80.6-7.6L80.6-7.6Q80.6-5.05 79.2-3.23 77.8-1.4 75.35-0.45 72.9 0.5 69.7 0.5L69.7 0.5Q65.3 0.5 62.6-1.3 59.9-3.1 59.9-6.15L59.9-6.15Q59.9-7.75 60.62-8.68 61.35-9.6 62.7-9.6L62.7-9.6Q63.9-9.6 64.72-8.9 65.55-8.2 65.55-7.05L65.55-7.05Q65.55-6.1 65.02-5.25 64.5-4.4 63.75-4L63.75-4Q64.4-3.05 66.07-2.43 67.75-1.8 69.9-1.8ZM101.89-2.05L105.24-3 105.24-14.15Q105.24-17.4 105.07-19 104.89-20.6 104.44-21.5L104.44-21.5Q103.24-23.95 100.04-23.95L100.04-23.95Q98.64-23.95 97.34-23.45 96.04-22.95 95.04-22.1L95.04-22.1Q93.94-21.15 93.42-19.83 92.89-18.5 92.79-16.55L92.79-16.55 92.79-3 96.14-2.05 96.14 0 84.09 0 84.09-2.05 87.94-3 87.94-36 84.09-36.95 84.09-39 92.79-39 92.79-22.3Q94.29-24.7 96.77-26.1 99.24-27.5 102.09-27.5L102.09-27.5Q104.09-27.5 105.69-26.8 107.29-26.1 108.24-24.8L108.24-24.8Q109.24-23.4 109.67-20.88 110.09-18.35 110.09-14.05L110.09-14.05 110.09-3 113.94-2.05 113.94 0 101.89 0 101.89-2.05ZM120.69-3L120.69-24 116.84-24.95 116.84-27 125.54-27 125.54-3 129.39-2.05 129.39 0 116.84 0 116.84-2.05 120.69-3ZM119.99-35.05L119.99-35.05Q119.99-36.5 120.84-37.35 121.69-38.2 123.09-38.2L123.09-38.2Q124.54-38.2 125.39-37.35 126.24-36.5 126.24-35.05L126.24-35.05Q126.24-33.65 125.39-32.8 124.54-31.95 123.09-31.95L123.09-31.95Q121.64-31.95 120.82-32.77 119.99-33.6 119.99-35.05ZM157.44-13.75L157.44-13.75Q157.44-10.5 156.46-7.58 155.49-4.65 153.74-2.75L153.74-2.75Q152.24-1.1 150.04-0.3 147.84 0.5 145.04 0.5L145.04 0.5Q142.29 0.5 140.14-0.28 137.99-1.05 136.49-2.65L136.49-2.65Q134.79-4.5 133.86-7.23 132.94-9.95 132.94-13.15L132.94-13.15Q132.94-16.4 133.89-19.38 134.84-22.35 136.64-24.25L136.64-24.25Q138.24-25.95 140.36-26.73 142.49-27.5 145.24-27.5L145.24-27.5Q147.99-27.5 150.19-26.73 152.39-25.95 153.89-24.35L153.89-24.35Q155.64-22.5 156.54-19.73 157.44-16.95 157.44-13.75ZM138.29-13.7L138.29-13.7Q138.29-10.65 138.76-8.43 139.24-6.2 140.09-4.75L140.09-4.75Q140.94-3.5 142.11-2.8 143.29-2.1 145.19-2.1L145.19-2.1Q148.64-2.1 150.34-4.45L150.34-4.45Q151.24-5.75 151.66-8.05 152.09-10.35 152.09-13.35L152.09-13.35Q152.09-16.35 151.61-18.6 151.14-20.85 150.29-22.25L150.29-22.25Q149.49-23.55 148.26-24.23 147.04-24.9 145.14-24.9L145.14-24.9Q141.64-24.9 140.09-22.6L140.09-22.6Q138.29-19.8 138.29-13.7ZM161.54-2.05L165.39-3 165.39-24 161.54-24.95 161.54-27 168.74-27 169.84-22 170.04-22Q171.54-24.55 174.09-26.03 176.64-27.5 179.54-27.5L179.54-27.5Q183.69-27.5 185.69-24.8L185.69-24.8Q186.69-23.4 187.11-20.88 187.54-18.35 187.54-14.05L187.54-14.05 187.54-3 191.39-2.05 191.39 0 179.34 0 179.34-2.05 182.69-3 182.69-14.15Q182.69-17.4 182.51-19 182.34-20.6 181.89-21.5L181.89-21.5Q181.29-22.7 180.16-23.33 179.04-23.95 177.49-23.95L177.49-23.95Q174.59-23.95 172.49-22.1L172.49-22.1Q170.44-20.25 170.24-16.35L170.24-16.35 170.24-3 173.59-2.05 173.59 0 161.54 0 161.54-2.05ZM225.93-2.15L230.03-3.2 227.08-12.1 213.68-12.1 210.63-3.2 214.78-2.15 214.78 0 203.08 0 203.08-2.15 207.18-3.2 219.18-36.5 223.83-36.5 235.68-3.2 239.68-2.15 239.68 0 225.93 0 225.93-2.15ZM220.73-32.05L220.53-32.05 214.68-15 226.13-15 220.73-32.05ZM241.28-2.05L245.13-3 245.13-24 241.28-24.95 241.28-27 248.48-27 249.58-22 249.78-22Q251.28-24.55 253.83-26.03 256.38-27.5 259.28-27.5L259.28-27.5Q263.43-27.5 265.43-24.8L265.43-24.8Q266.43-23.4 266.85-20.88 267.28-18.35 267.28-14.05L267.28-14.05 267.28-3 271.13-2.05 271.13 0 259.08 0 259.08-2.05 262.43-3 262.43-14.15Q262.43-17.4 262.25-19 262.08-20.6 261.63-21.5L261.63-21.5Q261.03-22.7 259.9-23.33 258.78-23.95 257.23-23.95L257.23-23.95Q254.33-23.95 252.23-22.1L252.23-22.1Q250.18-20.25 249.98-16.35L249.98-16.35 249.98-3 253.33-2.05 253.33 0 241.28 0 241.28-2.05ZM299.78-24.95L296.73-24 288.43-1.2Q287.03 2.65 285.88 5.03 284.73 7.4 283.33 8.45 281.93 9.5 279.73 9.5L279.73 9.5Q277.38 9.5 275.7 8.25 274.03 7 274.03 5.1L274.03 5.1Q274.03 3.7 274.83 2.78 275.63 1.85 276.93 1.85L276.93 1.85Q278.08 1.85 278.75 2.48 279.43 3.1 279.43 4.2L279.43 4.2Q279.43 4.9 279.15 5.55 278.88 6.2 278.43 6.7L278.43 6.7Q278.53 7.2 279.03 7.38 279.53 7.55 279.88 7.55L279.88 7.55Q280.58 7.55 281.18 7.2 281.78 6.85 282.45 5.73 283.13 4.6 283.93 2.2L283.93 2.2 284.53 0.35 274.18-24 271.18-24.95 271.18-27 282.38-27 282.78-24.95 279.23-24 286.68-4.4 286.88-4.4 293.18-24 290.28-24.95 290.28-27 299.78-27 299.78-24.95ZM312.37-24.95L308.92-24 314.07-6 314.67-3.05 314.92-3.05 315.52-6 321.37-27.5 324.97-27.5 331.02-6 331.62-3.05 331.82-3.05 332.42-6 337.42-24 334.17-24.95 334.17-27 343.67-27 343.67-24.95 340.97-24 333.52 0.5 328.37 0.5 322.42-19 316.62 0.5 311.47 0.5 303.82-24 301.17-24.95 301.17-27 312.37-27 312.37-24.95ZM363.07-2.05L366.42-3 366.42-14.15Q366.42-17.4 366.25-19 366.07-20.6 365.62-21.5L365.62-21.5Q364.42-23.95 361.22-23.95L361.22-23.95Q359.82-23.95 358.52-23.45 357.22-22.95 356.22-22.1L356.22-22.1Q355.12-21.15 354.6-19.83 354.07-18.5 353.97-16.55L353.97-16.55 353.97-3 357.32-2.05 357.32 0 345.27 0 345.27-2.05 349.12-3 349.12-36 345.27-36.95 345.27-39 353.97-39 353.97-22.3Q355.47-24.7 357.95-26.1 360.42-27.5 363.27-27.5L363.27-27.5Q365.27-27.5 366.87-26.8 368.47-26.1 369.42-24.8L369.42-24.8Q370.42-23.4 370.85-20.88 371.27-18.35 371.27-14.05L371.27-14.05 371.27-3 375.12-2.05 375.12 0 363.07 0 363.07-2.05ZM401.07-13.2L401.07-13.2 383.62-13.2Q383.62-9.55 384.62-7.15L384.62-7.15Q385.62-4.85 387.47-3.85 389.32-2.85 391.47-2.85L391.47-2.85Q393.82-2.85 395.77-3.83 397.72-4.8 399.27-6.5L399.27-6.5 400.87-5.3Q399.12-2.9 396.62-1.2 394.12 0.5 390.17 0.5L390.17 0.5Q386.72 0.5 384.07-0.98 381.42-2.45 380.02-5.3L380.02-5.3Q379.27-6.85 378.92-8.75 378.57-10.65 378.57-12.8L378.57-12.8Q378.57-19.8 381.79-23.65 385.02-27.5 390.57-27.5L390.57-27.5Q395.67-27.5 398.44-24.33 401.22-21.15 401.22-15.55L401.22-15.55Q401.22-15.05 401.19-14.63 401.17-14.2 401.07-13.2ZM390.27-24.8L390.27-24.8Q384.27-24.8 383.67-15.65L383.67-15.65 396.17-15.65 396.17-17.3Q396.17-20.9 394.64-22.85 393.12-24.8 390.27-24.8ZM420.27-24.1L420.27-24.1Q420.06-24.25 419.79-24.33 419.52-24.4 419.27-24.4L419.27-24.4Q418.67-24.4 417.97-23.85 417.27-23.3 416.62-22.38 415.97-21.45 415.42-20.25L415.42-20.25Q414.72-18.55 414.31-16.53 413.92-14.5 413.92-12.35L413.92-12.35 413.92-3 419.31-2.05 419.31 0 405.22 0 405.22-2.05 409.06-3 409.06-24 405.22-24.95 405.22-27 412.42-27 413.52-20.4 413.72-20.4Q414.87-23.8 416.81-25.65 418.77-27.5 421.12-27.5L421.12-27.5Q423.06-27.5 424.37-26.28 425.67-25.05 425.67-23L425.67-23Q425.67-21.5 424.89-20.63 424.12-19.75 422.81-19.75L422.81-19.75Q421.52-19.75 420.77-20.58 420.02-21.4 420.02-22.75L420.02-22.75Q420.02-23.05 420.06-23.33 420.12-23.6 420.27-24.1ZM450.91-13.2L450.91-13.2 433.46-13.2Q433.46-9.55 434.46-7.15L434.46-7.15Q435.46-4.85 437.31-3.85 439.16-2.85 441.31-2.85L441.31-2.85Q443.66-2.85 445.61-3.83 447.56-4.8 449.11-6.5L449.11-6.5 450.71-5.3Q448.96-2.9 446.46-1.2 443.96 0.5 440.01 0.5L440.01 0.5Q436.56 0.5 433.91-0.98 431.26-2.45 429.86-5.3L429.86-5.3Q429.11-6.85 428.76-8.75 428.41-10.65 428.41-12.8L428.41-12.8Q428.41-19.8 431.64-23.65 434.86-27.5 440.41-27.5L440.41-27.5Q445.51-27.5 448.29-24.33 451.06-21.15 451.06-15.55L451.06-15.55Q451.06-15.05 451.04-14.63 451.01-14.2 450.91-13.2ZM440.11-24.8L440.11-24.8Q434.11-24.8 433.51-15.65L433.51-15.65 446.01-15.65 446.01-17.3Q446.01-20.9 444.49-22.85 442.96-24.8 440.11-24.8Z" opacity="1" transform="matrix(1,0,0,1,0,0)" fill="#000000" class="slogan-text-1" data-fill-palette-color="secondary" id="text-1"></path></svg></g></svg></g></svg></g></svg></g></svg></g><defs></defs></svg><rect width="248.7822573028935" height="280" fill="none" stroke="none" visibility="hidden"></rect></g></svg></g></svg>